<svg xmlns="http://www.w3.org/2000/svg" viewBox="0 0 878.18 555.94"><defs><style>.cls-1,.cls-5{fill:#1c1b17;}.cls-2{fill:#f06f52;}.cls-2,.cls-4,.cls-5{fill-rule:evenodd;}.cls-3{fill:none;stroke:#fefefe;stroke-miterlimit:32.02;stroke-width:1.41px;}.cls-4{fill:#fefefe;}</style></defs><g id="Layer_2" data-name="Layer 2"><g id="Layer_1-2" data-name="Layer 1"><g id="Layer_1-3" data-name="Layer_1"><path class="cls-1" d="M800.17,358.05c22.94,0,41.58,15.2,41.58,39.29,0,24.38-18.64,39-41.58,39s-42.45-14.34-42.45-39c0-26.38,19.5-39.29,42.45-39.29Zm36.42-23.51c-9.75-6.6-25.24-8.9-36.42-8.9-39.58,0-77.44,24.1-77.44,71.7,0,44.17,30.69,71.13,77.44,71.13,26.38,0,40.15,10.9,40.15,27.82,0,17.5-21.22,25.81-40.73,25.81-22.08-.29-42.73-11.47-41.58-31.26H723.3c-1.43,40.44,27.25,65.1,76.29,65.1,37.86,0,77.15-19.5,77.15-59.65,0-13.77-4.88-35-35-45.89,23.23-10.61,35-27.82,35-53.06,0-14.62-4-27.53-16.34-42.15l17.78-20.65L852.37,315l-15.78,19.51Zm-143.4-4.88v142h-35v-142Zm-69.12,15.2c-16.34-14.34-33-18.64-55.06-18.64-25.81,0-59.65,11.47-59.65,44.17,0,32.12,31.83,41.87,58.5,43.87,20.08,1.15,28.11,6.6,28.11,16.35,0,10.33-12.33,15.77-25.53,15.49-15.77-.29-35.28-5.73-48.76-19.79l-17.2,25c20.65,21.5,43,25.23,65.39,25.23,40.43,0,60.8-21.5,60.8-46.46,0-37.57-33.84-43.59-60.51-45.31-18.07-1.15-26.39-6.31-26.39-15.49,0-8.89,9.18-14.05,25.81-14.05,13.48,0,25,3.15,35,12.62l19.5-22.95ZM458.59,329.94l-19.5,47.32-21.51,59.08-21.8-59.65-19.5-46.75H338.14L398.65,472.2h37.86l60.22-142.26Zm-238.9,54.49c5.16-18.35,20.65-27.53,39.58-27.53,20.08,0,34.41,9.18,36.71,27.53H219.69Zm109.84,29c5.46-58.22-24.09-87.47-71.41-87.47-45.88,0-75.14,31-75.14,74,0,45.32,29,75.43,77.73,75.43,21.51,0,45.89-7.45,60.8-22.94l-22.37-22.08c-8,8.31-24.95,13.19-37.86,13.19-24.67,0-39.87-12.62-42.16-30.12ZM118.45,271.15v78.3C110.13,334.82,86.9,326.79,72,326.79c-41.3,0-72,25.24-72,74,0,46.46,31.26,74,72.85,74,17.21,0,34.7-5.74,45.6-22.66l2.29,19.5h32.69V271.15Zm-43.3,88.34c22.08,0,41,16.63,41,41.3,0,25.52-18.93,41.58-41,41.58C52.77,442.37,35,425.45,35,400.79,35,375.26,52.77,359.49,75.15,359.49Z"/><path class="cls-2" d="M687.2,313.15c-1.13-.69-3.39-1.15-4.84-1.81a20.23,20.23,0,0,1-9.79-9.7c-5.37-11.29,1.84-16.14,7.59-13.28,4.06,2,2.58,5.9,4,9,2.89,6.1,12.89,6.86,16.59.52,1.77-3,1.27-7.33.22-10.85a24.15,24.15,0,0,0-11.87-14.31,27.84,27.84,0,0,0-21.39-1.15,20.55,20.55,0,0,0-8.09,4.88A22.74,22.74,0,0,0,652.19,295c.18,2.88,1.13,8.79,2.32,10.69.89,1.42,3.55,1,2.42-2.18-3-8.39-2.38-18.63,4.5-24.69,11.65-10.27,29-6.47,35,5.11,8.28,16-5.83,18.58-9.28,12.33-1.39-2.51.18-9.66-8.1-11.39-5.67-1.19-10.8,2.62-11.28,7.69a21.45,21.45,0,0,0,2.2,10.71,23.48,23.48,0,0,0,9.53,10c1.75.9,8.86,4.62,7.74-.08Zm-11.76-35.9a17.37,17.37,0,0,0-14.19,9.9c-3.37,7.27-.19,17.22,4.12,23.1.63.86,3.6,4.35,4.38,4.62a1.47,1.47,0,0,0,2-.95c.61-2.24-9.53-7.9-8.81-21,.8-14.51,21.53-17.13,27.13-4.75a13.59,13.59,0,0,1,1.13,4.77c.21,2.89,2.65,2.32,3,1C695.62,288.27,688.05,275.82,675.44,277.25Zm-1.79-14.51c-5.72.6-11.64,2.64-15.44,5.32a26.08,26.08,0,0,0-2.79,2.29c-1.94,1.89-2.83,2.12-5.07,5.28-1,1.33-.51,3,1.22,2.86.9-.09,3.12-3.49,5.12-5.25.44-.38.82-.81,1.26-1.17l4.84-3.08c8.84-4.65,22.14-4.58,30.84,1.22a34.17,34.17,0,0,1,6.83,6.16c.78.84,1.4,2.61,3.06,1.9,3.76-1.6-7.09-10.54-12-12.63a34.69,34.69,0,0,0-17.86-2.9Zm.33-7.42a43.47,43.47,0,0,0-10.24,2.23,34.24,34.24,0,0,0-4.44,1.86c-2.64,1.34-.88,3.2.22,3.17a40,40,0,0,0,4.34-1.86c16.6-6.76,29.39,1.7,30.67,1.86a1.43,1.43,0,0,0,1.65-1.33c.13-1.27-.61-1.44-1.47-1.88-5.17-2.62-13.69-5-20.73-4.06Zm8.81,51.53c5.74,3.64,15.71,3.52,13.89-.07-.84-1.66-3.53.46-8.69-.89a13.14,13.14,0,0,1-6-3.69,13,13,0,0,1-3.35-6.4c-.25-1.36.07-3.23-1.17-3.71-1.78-.69-2,1-1.95,2.47a15.86,15.86,0,0,0,7.31,12.28Z"/></g><g id="Layer_1-4" data-name="Layer_1"><path class="cls-2" d="M459.14,0h83l20.76,36,20.75,35.95-20.75,36L542.18,143.8h-83l-20.75-35.94L417.64,71.91,438.39,36,459.14,0Zm.12,160.1h83l20.76,36L583.8,232,563.05,268,542.29,303.9h-83L438.5,268,417.75,232l20.75-35.95,20.76-35.95ZM317.88,80.66h83l20.75,36,20.76,35.94-20.76,36-20.75,35.95h-83l-20.75-35.95-20.75-36,20.75-35.94,20.75-35.95Z"/><path class="cls-3" d="M461.13,3.45,421.6,71.91l39.53,68.46h79l39.52-68.46L540.17,3.45Zm.11,160.1L421.72,232l39.52,68.46h79L579.81,232l-39.53-68.46ZM319.87,84.11l-39.53,68.46L319.87,221h79l39.52-68.46L398.91,84.11Z"/><path class="cls-4" d="M311.82,143.2a4.86,4.86,0,0,1,4.85,4.85v22.76a4.85,4.85,0,1,1-9.69,0V148.05a4.85,4.85,0,0,1,4.84-4.85Z"/><path class="cls-5" d="M328.53,128.31a4.86,4.86,0,0,1,4.84,4.85v43.43a4.85,4.85,0,1,1-9.69,0V133.16A4.86,4.86,0,0,1,328.53,128.31Z"/><path class="cls-5" d="M361.92,113.15a4.86,4.86,0,0,1,4.84,4.84v52.63a4.85,4.85,0,0,1-9.69,0V118A4.86,4.86,0,0,1,361.92,113.15Z"/><path class="cls-4" d="M345.23,146.39a4.84,4.84,0,0,1,4.84,4.84v15.38a4.85,4.85,0,0,1-9.69,0V151.23A4.85,4.85,0,0,1,345.23,146.39Z"/><path class="cls-4" d="M378.62,142.8a4.86,4.86,0,0,1,4.85,4.84v38.3a4.85,4.85,0,0,1-9.7,0v-38.3A4.86,4.86,0,0,1,378.62,142.8Z"/><path class="cls-5" d="M395.31,136.82a4.85,4.85,0,0,1,4.84,4.85V171a4.85,4.85,0,1,1-9.69,0V141.67A4.86,4.86,0,0,1,395.31,136.82Z"/></g></g></g></svg>